<?xml version="1.0" encoding="UTF-8"?>
<svg xmlns="http://www.w3.org/2000/svg" xmlns:xlink="http://www.w3.org/1999/xlink" width="2446" height="1799" viewBox="0 0 2446 1799">

<path fill-rule="evenodd" fill="rgb(2.748108%, 65.818787%, 61.131287%)" fill-opacity="1" d="M 1266.929688 1081.75 C 1264.988281 1101.535156 1246.121094 1117.0625 1223.101562 1117.0625 C 1200.101562 1117.0625 1181.21875 1101.535156 1179.28125 1081.757812 C 1193.21875 1088 1208.808594 1091.175781 1223.101562 1091.175781 C 1237.390625 1091.175781 1252.980469 1088 1266.929688 1081.75 "/>
<path fill-rule="evenodd" fill="rgb(2.748108%, 65.818787%, 61.131287%)" fill-opacity="1" d="M 1295.140625 1024.726562 L 1295.140625 1024.734375 C 1295.140625 1053.71875 1262.878906 1077.226562 1223.101562 1077.226562 C 1183.320312 1077.226562 1151.070312 1053.71875 1151.070312 1024.734375 L 1151.070312 1024.722656 C 1168.738281 1031.597656 1188.410156 1035.429688 1205.101562 1037.042969 L 1206.441406 1037.171875 L 1206.519531 1037.179688 C 1210.160156 1037.519531 1213.761719 1037.742188 1217.261719 1037.863281 L 1218.988281 1037.914062 C 1220.410156 1037.949219 1221.78125 1037.96875 1223.101562 1037.96875 C 1224.421875 1037.96875 1225.800781 1037.949219 1227.210938 1037.914062 L 1228.941406 1037.863281 C 1232.449219 1037.742188 1236.039062 1037.511719 1239.691406 1037.179688 L 1239.761719 1037.171875 L 1241.101562 1037.042969 C 1257.800781 1035.429688 1277.460938 1031.601562 1295.140625 1024.726562 "/>
<path fill-rule="evenodd" fill="rgb(2.748108%, 65.818787%, 61.131287%)" fill-opacity="1" d="M 1325.488281 952.601562 C 1328.691406 957.8125 1330.410156 963.355469 1330.410156 969.105469 C 1330.410156 999.433594 1282.371094 1024.019531 1223.101562 1024.019531 C 1163.839844 1024.019531 1115.789062 999.433594 1115.789062 969.105469 C 1115.789062 963.355469 1117.519531 957.8125 1120.71875 952.601562 C 1142.039062 968.109375 1179.929688 978.4375 1223.101562 978.4375 C 1266.28125 978.4375 1304.160156 968.109375 1325.488281 952.601562 "/>
<path fill-rule="evenodd" fill="rgb(2.748108%, 65.818787%, 61.131287%)" fill-opacity="1" d="M 1240.808594 953.277344 L 1241.160156 953.257812 C 1243.441406 953.113281 1245.71875 952.949219 1247.988281 952.753906 L 1248.171875 952.742188 L 1248.261719 952.730469 C 1250.558594 952.535156 1252.859375 952.308594 1255.140625 952.058594 L 1255.480469 952.019531 C 1257.761719 951.765625 1260.03125 951.484375 1262.289062 951.179688 L 1262.511719 951.152344 C 1264.820312 950.835938 1267.121094 950.496094 1269.410156 950.128906 L 1269.460938 950.121094 C 1271.78125 949.746094 1274.089844 949.347656 1276.390625 948.917969 L 1276.460938 948.902344 L 1278.640625 948.488281 L 1278.640625 948.472656 C 1411.96875 922.566406 1512.628906 805.210938 1512.628906 664.308594 C 1512.621094 507.96875 1388.710938 380.601562 1233.730469 375 L 1233.730469 424.171875 C 1361.558594 429.730469 1463.488281 535.121094 1463.488281 664.308594 C 1463.488281 777.949219 1384.621094 873.15625 1278.640625 898.222656 L 1278.640625 805.882812 L 1372.871094 805.882812 L 1372.871094 636.28125 L 1327.960938 636.28125 L 1327.960938 760.96875 L 1233.730469 760.96875 L 1233.730469 953.621094 C 1236.101562 953.535156 1238.460938 953.417969 1240.808594 953.277344 "/>
<path fill-rule="evenodd" fill="rgb(16.868591%, 23.143005%, 34.910583%)" fill-opacity="1" d="M 1073.339844 636.28125 L 1118.25 636.28125 L 1118.25 760.96875 L 1212.480469 760.96875 L 1212.480469 805.882812 L 1073.339844 805.882812 L 1073.339844 636.28125 "/>
<path fill-rule="evenodd" fill="rgb(16.868591%, 23.143005%, 34.910583%)" fill-opacity="1" d="M 1212.480469 539.308594 L 1073.339844 636.28125 L 994.792969 636.28125 L 1084.109375 574.03125 L 1167.558594 515.859375 L 1167.558594 430.398438 C 1061.578125 455.46875 982.710938 550.671875 982.710938 664.308594 C 982.710938 793.511719 1084.648438 898.894531 1212.480469 904.453125 L 1212.480469 953.621094 C 1057.5 948.023438 933.578125 820.65625 933.578125 664.308594 C 933.578125 523.410156 1034.238281 406.050781 1167.558594 380.148438 L 1167.558594 380.128906 C 1182.171875 377.289062 1197.171875 375.550781 1212.480469 375 L 1212.480469 539.308594 "/>
<path fill-rule="evenodd" fill="rgb(2.748108%, 65.818787%, 61.131287%)" fill-opacity="1" d="M 1259.410156 502.460938 L 1233.730469 484.558594 L 1233.730469 539.308594 L 1372.871094 636.28125 L 1451.410156 636.28125 L 1362.101562 574.03125 L 1361.75 573.789062 L 1361.761719 573.789062 L 1272.441406 511.539062 L 1259.410156 502.460938 "/>
<path fill-rule="nonzero" fill="rgb(2.748108%, 65.818787%, 61.131287%)" fill-opacity="1" d="M 699.171875 1351.394531 C 735.914062 1351.394531 753.730469 1333.023438 753.730469 1311.558594 C 753.730469 1264.347656 678.964844 1280.726562 678.964844 1257 C 678.964844 1248.886719 685.761719 1242.273438 703.398438 1242.273438 C 714.785156 1242.273438 727.09375 1245.578125 739.035156 1252.375 L 748.222656 1229.78125 C 736.28125 1222.246094 719.746094 1218.390625 703.582031 1218.390625 C 667.023438 1218.390625 649.386719 1236.578125 649.386719 1258.46875 C 649.386719 1306.230469 724.15625 1289.699219 724.15625 1313.765625 C 724.15625 1321.632812 716.992188 1327.511719 699.355469 1327.511719 C 683.925781 1327.511719 667.757812 1322 656.921875 1314.132812 L 646.816406 1336.511719 C 658.203125 1345.328125 678.78125 1351.394531 699.171875 1351.394531 "/>
<path fill-rule="nonzero" fill="rgb(2.748108%, 65.818787%, 61.131287%)" fill-opacity="1" d="M 898.675781 1248.886719 C 883.796875 1248.886719 870.9375 1254.949219 863.035156 1265.050781 C 856.054688 1254.210938 844.300781 1248.886719 830.519531 1248.886719 C 817.84375 1248.886719 806.824219 1253.292969 799.476562 1261.746094 L 799.476562 1250.355469 L 772.101562 1250.355469 L 772.101562 1349.1875 L 800.761719 1349.1875 L 800.761719 1299.589844 C 800.761719 1281.953125 809.761719 1273.6875 822.4375 1273.6875 C 834.378906 1273.6875 841.175781 1281.035156 841.175781 1297.015625 L 841.175781 1349.1875 L 869.835938 1349.1875 L 869.835938 1299.589844 C 869.835938 1281.953125 878.835938 1273.6875 891.695312 1273.6875 C 903.269531 1273.6875 910.433594 1281.035156 910.433594 1297.015625 L 910.433594 1349.1875 L 939.089844 1349.1875 L 939.089844 1292.605469 C 939.089844 1262.480469 922.191406 1248.886719 898.675781 1248.886719 "/>
<path fill-rule="nonzero" fill="rgb(2.748108%, 65.818787%, 61.131287%)" fill-opacity="1" d="M 1004.671875 1248.886719 C 988.875 1248.886719 972.890625 1253.109375 962.054688 1260.824219 L 972.339844 1280.851562 C 979.507812 1275.15625 990.34375 1271.664062 1000.820312 1271.664062 C 1016.25 1271.664062 1023.589844 1278.828125 1023.589844 1291.136719 L 1000.820312 1291.136719 C 970.6875 1291.136719 958.378906 1303.261719 958.378906 1320.714844 C 958.378906 1337.800781 972.15625 1350.65625 995.304688 1350.65625 C 1009.820312 1350.65625 1020.101562 1345.882812 1025.429688 1336.878906 L 1025.429688 1349.1875 L 1052.25 1349.1875 L 1052.25 1292.789062 C 1052.25 1262.847656 1034.800781 1248.886719 1004.671875 1248.886719 Z M 1002.46875 1331.367188 C 992.363281 1331.367188 986.304688 1326.59375 986.304688 1319.429688 C 986.304688 1312.8125 990.527344 1307.855469 1003.941406 1307.855469 L 1023.589844 1307.855469 L 1023.589844 1317.960938 C 1020.289062 1326.960938 1012.019531 1331.367188 1002.46875 1331.367188 "/>
<path fill-rule="nonzero" fill="rgb(2.748108%, 65.818787%, 61.131287%)" fill-opacity="1" d="M 1105.53125 1263.398438 L 1105.53125 1250.355469 L 1078.160156 1250.355469 L 1078.160156 1349.1875 L 1106.808594 1349.1875 L 1106.808594 1302.527344 C 1106.808594 1283.605469 1117.28125 1274.972656 1133.078125 1274.972656 C 1135.289062 1274.972656 1137.128906 1275.15625 1139.511719 1275.339844 L 1139.511719 1248.886719 C 1124.269531 1248.886719 1112.511719 1253.84375 1105.53125 1263.398438 "/>
<path fill-rule="nonzero" fill="rgb(2.748108%, 65.818787%, 61.131287%)" fill-opacity="1" d="M 1216.121094 1324.203125 C 1213 1326.59375 1208.769531 1327.878906 1204.539062 1327.878906 C 1196.828125 1327.878906 1192.238281 1323.285156 1192.238281 1314.835938 L 1192.238281 1274.605469 L 1216.851562 1274.605469 L 1216.851562 1252.558594 L 1192.238281 1252.558594 L 1192.238281 1228.492188 L 1163.578125 1228.492188 L 1163.578125 1252.558594 L 1148.328125 1252.558594 L 1148.328125 1274.605469 L 1163.578125 1274.605469 L 1163.578125 1315.203125 C 1163.578125 1338.71875 1177.171875 1350.65625 1200.5 1350.65625 C 1209.320312 1350.65625 1217.960938 1348.636719 1223.828125 1344.410156 L 1216.121094 1324.203125 "/>
<path fill-rule="nonzero" fill="rgb(16.868591%, 23.143005%, 34.910583%)" fill-opacity="1" d="M 1330.199219 1220.59375 L 1330.199219 1271.296875 L 1271.78125 1271.296875 L 1271.78125 1220.59375 L 1242.019531 1220.59375 L 1242.019531 1349.1875 L 1271.78125 1349.1875 L 1271.78125 1296.464844 L 1330.199219 1296.464844 L 1330.199219 1349.1875 L 1359.960938 1349.1875 L 1359.960938 1220.59375 L 1330.199219 1220.59375 "/>
<path fill-rule="nonzero" fill="rgb(16.868591%, 23.143005%, 34.910583%)" fill-opacity="1" d="M 1435.460938 1350.65625 C 1466.878906 1350.65625 1489.660156 1329.53125 1489.660156 1299.769531 C 1489.660156 1270.011719 1466.878906 1248.886719 1435.460938 1248.886719 C 1404.050781 1248.886719 1381.089844 1270.011719 1381.089844 1299.769531 C 1381.089844 1329.53125 1404.050781 1350.65625 1435.460938 1350.65625 Z M 1435.460938 1327.144531 C 1421.128906 1327.144531 1410.109375 1316.855469 1410.109375 1299.769531 C 1410.109375 1282.6875 1421.128906 1272.398438 1435.460938 1272.398438 C 1449.789062 1272.398438 1460.628906 1282.6875 1460.628906 1299.769531 C 1460.628906 1316.855469 1449.789062 1327.144531 1435.460938 1327.144531 "/>
<path fill-rule="nonzero" fill="rgb(16.868591%, 23.143005%, 34.910583%)" fill-opacity="1" d="M 1635.328125 1248.886719 C 1620.449219 1248.886719 1607.589844 1254.949219 1599.691406 1265.050781 C 1592.710938 1254.210938 1580.960938 1248.886719 1567.179688 1248.886719 C 1554.5 1248.886719 1543.480469 1253.292969 1536.128906 1261.746094 L 1536.128906 1250.355469 L 1508.761719 1250.355469 L 1508.761719 1349.1875 L 1537.421875 1349.1875 L 1537.421875 1299.589844 C 1537.421875 1281.953125 1546.421875 1273.6875 1559.101562 1273.6875 C 1571.039062 1273.6875 1577.828125 1281.035156 1577.828125 1297.015625 L 1577.828125 1349.1875 L 1606.488281 1349.1875 L 1606.488281 1299.589844 C 1606.488281 1281.953125 1615.488281 1273.6875 1628.351562 1273.6875 C 1639.929688 1273.6875 1647.089844 1281.035156 1647.089844 1297.015625 L 1647.089844 1349.1875 L 1675.75 1349.1875 L 1675.75 1292.605469 C 1675.75 1262.480469 1658.851562 1248.886719 1635.328125 1248.886719 "/>
<path fill-rule="nonzero" fill="rgb(16.868591%, 23.143005%, 34.910583%)" fill-opacity="1" d="M 1799.378906 1300.140625 C 1799.378906 1268.359375 1776.96875 1248.886719 1747.941406 1248.886719 C 1717.820312 1248.886719 1695.21875 1270.195312 1695.21875 1299.769531 C 1695.21875 1329.164062 1717.449219 1350.65625 1751.621094 1350.65625 C 1769.441406 1350.65625 1783.21875 1345.144531 1792.398438 1334.675781 L 1777.148438 1318.140625 C 1770.359375 1324.570312 1762.820312 1327.695312 1752.351562 1327.695312 C 1737.289062 1327.695312 1726.820312 1320.164062 1724.058594 1307.855469 L 1798.828125 1307.855469 C 1799.011719 1305.464844 1799.378906 1302.34375 1799.378906 1300.140625 Z M 1748.128906 1270.5625 C 1760.988281 1270.5625 1770.359375 1278.644531 1772.378906 1291.136719 L 1723.699219 1291.136719 C 1725.71875 1278.460938 1735.089844 1270.5625 1748.128906 1270.5625 "/>
<path fill-rule="nonzero" fill="rgb(16.868591%, 23.143005%, 34.910583%)" fill-opacity="1" d="M 916.703125 1406.828125 C 919.226562 1405.589844 921.019531 1403.15625 921.019531 1399.664062 C 921.019531 1394.476562 916.886719 1391.355469 909.492188 1391.355469 L 895.074219 1391.355469 L 895.074219 1423.496094 L 910.410156 1423.496094 C 918.539062 1423.496094 922.71875 1420.328125 922.71875 1414.816406 C 922.71875 1410.546875 920.328125 1407.839844 916.703125 1406.828125 Z M 909.078125 1395.074219 C 913.765625 1395.074219 916.425781 1396.820312 916.425781 1400.21875 C 916.425781 1403.613281 913.765625 1405.359375 909.078125 1405.359375 L 899.667969 1405.359375 L 899.667969 1395.074219 Z M 910.226562 1419.777344 L 899.667969 1419.777344 L 899.667969 1409.078125 L 910.226562 1409.078125 C 915.324219 1409.078125 918.078125 1410.730469 918.078125 1414.449219 C 918.078125 1418.171875 915.324219 1419.777344 910.226562 1419.777344 "/>
<path fill-rule="nonzero" fill="rgb(16.868591%, 23.143005%, 34.910583%)" fill-opacity="1" d="M 947.125 1423.863281 C 955.621094 1423.863281 960.71875 1418.949219 960.71875 1409.628906 L 960.71875 1391.355469 L 956.261719 1391.355469 L 956.261719 1409.445312 C 956.261719 1416.5625 952.957031 1419.777344 947.171875 1419.777344 C 941.386719 1419.777344 938.125 1416.5625 938.125 1409.445312 L 938.125 1391.355469 L 933.535156 1391.355469 L 933.535156 1409.628906 C 933.535156 1418.949219 938.675781 1423.863281 947.125 1423.863281 "/>
<path fill-rule="nonzero" fill="rgb(16.868591%, 23.143005%, 34.910583%)" fill-opacity="1" d="M 983.472656 1423.863281 C 991.96875 1423.863281 995.914062 1419.640625 995.914062 1414.734375 C 995.914062 1402.941406 976.445312 1407.863281 976.445312 1399.996094 C 976.445312 1397.1875 978.789062 1394.890625 984.253906 1394.890625 C 987.097656 1394.890625 990.269531 1395.71875 993.070312 1397.507812 L 994.585938 1393.835938 C 991.921875 1391.996094 988.019531 1390.988281 984.253906 1390.988281 C 975.804688 1390.988281 971.945312 1395.210938 971.945312 1400.179688 C 971.945312 1412.125 991.414062 1407.171875 991.414062 1415.011719 C 991.414062 1417.8125 989.027344 1419.960938 983.472656 1419.960938 C 979.339844 1419.960938 975.253906 1418.40625 972.863281 1416.25 L 971.164062 1419.824219 C 973.738281 1422.210938 978.558594 1423.863281 983.472656 1423.863281 "/>
<path fill-rule="nonzero" fill="rgb(16.868591%, 23.143005%, 34.910583%)" fill-opacity="1" d="M 1006.589844 1423.496094 L 1011.191406 1423.496094 L 1011.191406 1391.355469 L 1006.589844 1391.355469 L 1006.589844 1423.496094 "/>
<path fill-rule="nonzero" fill="rgb(16.868591%, 23.143005%, 34.910583%)" fill-opacity="1" d="M 1047.851562 1391.355469 L 1047.851562 1415.324219 L 1028.570312 1391.355469 L 1024.800781 1391.355469 L 1024.800781 1423.496094 L 1029.390625 1423.496094 L 1029.390625 1399.527344 L 1048.679688 1423.496094 L 1052.449219 1423.496094 L 1052.449219 1391.355469 L 1047.851562 1391.355469 "/>
<path fill-rule="nonzero" fill="rgb(16.868591%, 23.143005%, 34.910583%)" fill-opacity="1" d="M 1070.648438 1419.503906 L 1070.648438 1409.125 L 1086.769531 1409.125 L 1086.769531 1405.222656 L 1070.648438 1405.222656 L 1070.648438 1395.347656 L 1088.75 1395.347656 L 1088.75 1391.355469 L 1066.058594 1391.355469 L 1066.058594 1423.496094 L 1089.390625 1423.496094 L 1089.390625 1419.503906 L 1070.648438 1419.503906 "/>
<path fill-rule="nonzero" fill="rgb(16.868591%, 23.143005%, 34.910583%)" fill-opacity="1" d="M 1110.171875 1423.863281 C 1118.660156 1423.863281 1122.609375 1419.640625 1122.609375 1414.734375 C 1122.609375 1402.941406 1103.140625 1407.863281 1103.140625 1399.996094 C 1103.140625 1397.1875 1105.480469 1394.890625 1110.949219 1394.890625 C 1113.800781 1394.890625 1116.960938 1395.71875 1119.769531 1397.507812 L 1121.28125 1393.835938 C 1118.621094 1391.996094 1114.710938 1390.988281 1110.949219 1390.988281 C 1102.5 1390.988281 1098.640625 1395.210938 1098.640625 1400.179688 C 1098.640625 1412.125 1118.109375 1407.171875 1118.109375 1415.011719 C 1118.109375 1417.8125 1115.71875 1419.960938 1110.171875 1419.960938 C 1106.039062 1419.960938 1101.949219 1418.40625 1099.558594 1416.25 L 1097.859375 1419.824219 C 1100.429688 1422.210938 1105.261719 1423.863281 1110.171875 1423.863281 "/>
<path fill-rule="nonzero" fill="rgb(16.868591%, 23.143005%, 34.910583%)" fill-opacity="1" d="M 1142.660156 1423.863281 C 1151.148438 1423.863281 1155.101562 1419.640625 1155.101562 1414.734375 C 1155.101562 1402.941406 1135.628906 1407.863281 1135.628906 1399.996094 C 1135.628906 1397.1875 1137.96875 1394.890625 1143.441406 1394.890625 C 1146.289062 1394.890625 1149.449219 1395.71875 1152.25 1397.507812 L 1153.769531 1393.835938 C 1151.109375 1391.996094 1147.199219 1390.988281 1143.441406 1390.988281 C 1134.988281 1390.988281 1131.128906 1395.210938 1131.128906 1400.179688 C 1131.128906 1412.125 1150.601562 1407.171875 1150.601562 1415.011719 C 1150.601562 1417.8125 1148.210938 1419.960938 1142.660156 1419.960938 C 1138.53125 1419.960938 1134.441406 1418.40625 1132.050781 1416.25 L 1130.351562 1419.824219 C 1132.921875 1422.210938 1137.738281 1423.863281 1142.660156 1423.863281 "/>
<path fill-rule="nonzero" fill="rgb(16.868591%, 23.143005%, 34.910583%)" fill-opacity="1" d="M 1187.5 1423.863281 C 1195.988281 1423.863281 1199.941406 1419.640625 1199.941406 1414.734375 C 1199.941406 1402.941406 1180.46875 1407.863281 1180.46875 1399.996094 C 1180.46875 1397.1875 1182.820312 1394.890625 1188.28125 1394.890625 C 1191.128906 1394.890625 1194.289062 1395.71875 1197.101562 1397.507812 L 1198.609375 1393.835938 C 1195.949219 1391.996094 1192.039062 1390.988281 1188.28125 1390.988281 C 1179.828125 1390.988281 1175.96875 1395.210938 1175.96875 1400.179688 C 1175.96875 1412.125 1195.441406 1407.171875 1195.441406 1415.011719 C 1195.441406 1417.8125 1193.058594 1419.960938 1187.5 1419.960938 C 1183.371094 1419.960938 1179.28125 1418.40625 1176.890625 1416.25 L 1175.191406 1419.824219 C 1177.761719 1422.210938 1182.589844 1423.863281 1187.5 1423.863281 "/>
<path fill-rule="nonzero" fill="rgb(16.868591%, 23.143005%, 34.910583%)" fill-opacity="1" d="M 1210.621094 1423.496094 L 1232.621094 1423.496094 L 1232.621094 1419.503906 L 1215.210938 1419.503906 L 1215.210938 1391.355469 L 1210.621094 1391.355469 L 1210.621094 1423.496094 "/>
<path fill-rule="nonzero" fill="rgb(16.868591%, 23.143005%, 34.910583%)" fill-opacity="1" d="M 1255.78125 1423.863281 C 1265.558594 1423.863281 1272.820312 1416.886719 1272.820312 1407.425781 C 1272.820312 1397.96875 1265.558594 1390.988281 1255.78125 1390.988281 C 1245.910156 1390.988281 1238.660156 1398.011719 1238.660156 1407.425781 C 1238.660156 1416.839844 1245.910156 1423.863281 1255.78125 1423.863281 Z M 1255.78125 1419.777344 C 1248.570312 1419.777344 1243.25 1414.542969 1243.25 1407.425781 C 1243.25 1400.308594 1248.570312 1395.074219 1255.78125 1395.074219 C 1262.898438 1395.074219 1268.230469 1400.308594 1268.230469 1407.425781 C 1268.230469 1414.542969 1262.898438 1419.777344 1255.78125 1419.777344 "/>
<path fill-rule="nonzero" fill="rgb(16.868591%, 23.143005%, 34.910583%)" fill-opacity="1" d="M 1306.089844 1417.710938 C 1303.789062 1419.179688 1301.269531 1419.777344 1298.558594 1419.777344 C 1291.171875 1419.777344 1285.789062 1414.496094 1285.789062 1407.425781 C 1285.789062 1400.261719 1291.171875 1395.074219 1298.601562 1395.074219 C 1302.230469 1395.074219 1305.261719 1396.222656 1307.929688 1398.792969 L 1310.769531 1395.945312 C 1307.828125 1392.6875 1303.519531 1390.988281 1298.421875 1390.988281 C 1288.460938 1390.988281 1281.199219 1397.921875 1281.199219 1407.425781 C 1281.199219 1416.929688 1288.460938 1423.863281 1298.328125 1423.863281 C 1302.828125 1423.863281 1307.28125 1422.488281 1310.5 1419.777344 L 1310.5 1407.242188 L 1306.089844 1407.242188 L 1306.089844 1417.710938 "/>
<path fill-rule="nonzero" fill="rgb(16.868591%, 23.143005%, 34.910583%)" fill-opacity="1" d="M 1347.261719 1423.496094 L 1352.078125 1423.496094 L 1337.480469 1391.355469 L 1332.929688 1391.355469 L 1318.371094 1423.496094 L 1323.101562 1423.496094 L 1326.640625 1415.460938 L 1343.71875 1415.460938 Z M 1328.25 1411.789062 L 1335.179688 1396.039062 L 1342.109375 1411.789062 Z M 1328.25 1411.789062 "/>
<path fill-rule="nonzero" fill="rgb(16.868591%, 23.143005%, 34.910583%)" fill-opacity="1" d="M 1383.878906 1391.355469 L 1383.878906 1415.324219 L 1364.589844 1391.355469 L 1360.828125 1391.355469 L 1360.828125 1423.496094 L 1365.421875 1423.496094 L 1365.421875 1399.527344 L 1384.710938 1423.496094 L 1388.46875 1423.496094 L 1388.46875 1391.355469 L 1383.878906 1391.355469 "/>
<path fill-rule="nonzero" fill="rgb(16.868591%, 23.143005%, 34.910583%)" fill-opacity="1" d="M 1437.488281 1391.355469 L 1437.488281 1405.175781 L 1419.03125 1405.175781 L 1419.03125 1391.355469 L 1414.441406 1391.355469 L 1414.441406 1423.496094 L 1419.03125 1423.496094 L 1419.03125 1409.171875 L 1437.488281 1409.171875 L 1437.488281 1423.496094 L 1442.078125 1423.496094 L 1442.078125 1391.355469 L 1437.488281 1391.355469 "/>
<path fill-rule="nonzero" fill="rgb(16.868591%, 23.143005%, 34.910583%)" fill-opacity="1" d="M 1460.289062 1419.503906 L 1460.289062 1409.125 L 1476.410156 1409.125 L 1476.410156 1405.222656 L 1460.289062 1405.222656 L 1460.289062 1395.347656 L 1478.378906 1395.347656 L 1478.378906 1391.355469 L 1455.699219 1391.355469 L 1455.699219 1423.496094 L 1479.019531 1423.496094 L 1479.019531 1419.503906 L 1460.289062 1419.503906 "/>
<path fill-rule="nonzero" fill="rgb(16.868591%, 23.143005%, 34.910583%)" fill-opacity="1" d="M 1516.929688 1423.496094 L 1509.308594 1412.707031 C 1513.808594 1411.097656 1516.378906 1407.519531 1516.378906 1402.558594 C 1516.378906 1395.578125 1511.328125 1391.355469 1502.96875 1391.355469 L 1490.441406 1391.355469 L 1490.441406 1423.496094 L 1495.03125 1423.496094 L 1495.03125 1413.71875 L 1502.96875 1413.71875 C 1503.660156 1413.71875 1504.351562 1413.671875 1504.988281 1413.625 L 1511.929688 1423.496094 Z M 1502.839844 1409.8125 L 1495.03125 1409.8125 L 1495.03125 1395.347656 L 1502.839844 1395.347656 C 1508.710938 1395.347656 1511.789062 1397.96875 1511.789062 1402.558594 C 1511.789062 1407.148438 1508.710938 1409.8125 1502.839844 1409.8125 "/>
<path fill-rule="nonzero" fill="rgb(16.868591%, 23.143005%, 34.910583%)" fill-opacity="1" d="M 1532.390625 1419.503906 L 1532.390625 1409.125 L 1548.5 1409.125 L 1548.5 1405.222656 L 1532.390625 1405.222656 L 1532.390625 1395.347656 L 1550.480469 1395.347656 L 1550.480469 1391.355469 L 1527.789062 1391.355469 L 1527.789062 1423.496094 L 1551.121094 1423.496094 L 1551.121094 1419.503906 L 1532.390625 1419.503906 "/>
</svg>
